# xmcd
#
# Track frame offsets:
#	150
#	44286
#	100062
#	136945
#
# Disc length: 2269 seconds
#
# Revision: 1
# Processed by: cddbd v1.5.2PL0 Copyright (c) Steve Scherf et al.
# Submitted via: audiograbber 1.83.01
#
DISCID=2b08db04
DTITLE=Grateful Dead - 77-12-27 Winterland Arena, San Francisco CA
DYEAR=1900
DGENRE=
TTITLE0=Truckin'
TTITLE1=Wharf Rat
TTITLE2=Around and Around
TTITLE3=Samson and Delilah
EXTD=
EXTT0=
EXTT1=
EXTT2=
EXTT3=
PLAYORDER=
